<svg width="1047" height="1077" viewBox="0 0 1047 1077" fill="none" xmlns="http://www.w3.org/2000/svg">
<path fill-rule="evenodd" clip-rule="evenodd" d="M255.768 734.178C213.07 679.668 155.705 633.478 143.823 565.263C131.009 491.698 155.928 418.368 189.107 351.471C226.835 275.403 263.833 181.34 345.596 158.437C427.228 135.571 499.924 211.978 579.119 242.223C649.837 269.231 734.773 268.642 784.228 325.954C834.648 384.384 831.537 468.084 840.193 544.774C849.735 629.299 876.601 718.399 837.027 793.695C795.724 872.282 715.237 930.958 628.152 948.221C545.901 964.526 464.573 923.723 391.876 881.937C332.362 847.729 298.097 788.217 255.768 734.178Z" fill="#292C2F"/>
</svg>
