<svg width="1122" height="1116" viewBox="0 0 1122 1116" fill="none" xmlns="http://www.w3.org/2000/svg">
<path fill-rule="evenodd" clip-rule="evenodd" d="M262.048 836.135C213.574 774.837 163.796 705.991 167.41 627.926C170.936 551.767 244.939 503.028 280.588 435.635C322.988 355.477 311.08 229.256 395.63 196.478C479.676 163.896 553.126 271.569 639.782 296.385C727.279 321.441 833.937 281.464 902.283 341.567C973.163 403.899 998.963 509.851 989.294 603.744C980.16 692.443 921.482 769.531 852.406 825.917C794.579 873.121 712.798 861.408 642.587 886.758C572.052 912.225 515.684 984.223 441.348 974.334C364.671 964.133 310.028 896.809 262.048 836.135Z" fill="#121212"/>
</svg>
