<svg width="892" height="896" viewBox="0 0 892 896" fill="none" xmlns="http://www.w3.org/2000/svg">
<path fill-rule="evenodd" clip-rule="evenodd" d="M203.783 637.426C157.282 589.328 115.042 528.973 116.653 462.092C118.239 396.283 176.403 350.059 212.04 294.713C248.986 237.334 264.552 155.737 328.774 132.656C393.002 109.574 457.534 160.856 521.979 183.325C582.365 204.378 651.281 211.038 692.885 259.605C735.393 309.227 749.164 378.402 744.942 443.605C740.967 505.014 701.257 554.311 670.359 607.529C636.501 665.845 619.608 745.403 556.277 768.559C492.923 791.723 428.374 742.643 365.152 719.123C307.227 697.575 246.74 681.858 203.783 637.426Z" fill="url(#paint0_linear)"/>
<defs>
<linearGradient id="paint0_linear" x1="645.192" y1="705.676" x2="246.856" y2="190.017" gradientUnits="userSpaceOnUse">
<stop stop-color="#FE6DDE"/>
<stop offset="1" stop-color="#FE6D6D"/>
</linearGradient>
</defs>
</svg>
